HIERARCHY
ROOT hip
{
  OFFSET 0 0 0
  CHANNELS 6 Xposition Yposition Zposition Zrotation Yrotation Xrotation
  JOINT abdomen
  {
    OFFSET 0 20.6881 -0.73152
    CHANNELS 3 Zrotation Xrotation Yrotation
    JOINT chest
    {
      OFFSET 0 11.7043 -0.48768
      CHANNELS 3 Zrotation Xrotation Yrotation
      JOINT neck
      {
        OFFSET 0 22.1894 -2.19456
        CHANNELS 3 Zrotation Xrotation Yrotation
        JOINT head
        {
          OFFSET -0.24384 7.07133 1.2192
          CHANNELS 3 Zrotation Xrotation Yrotation
          JOINT leftEye
          {
            OFFSET 4.14528 8.04674 8.04672
            CHANNELS 3 Zrotation Xrotation Yrotation
            End Site
            {
              OFFSET 1 0 0
            }
          }
          JOINT rightEye
          {
            OFFSET -3.6576 8.04674 8.04672
            CHANNELS 3 Zrotation Xrotation Yrotation
            End Site
            {
              OFFSET 1 0 0
            }
          }
        }
      }
      JOINT rCollar
      {
        OFFSET -2.68224 19.2634 -4.8768
        CHANNELS 3 Zrotation Xrotation Yrotation
        JOINT rShldr
        {
          OFFSET -8.77824 -1.95073 1.46304
          CHANNELS 3 Zrotation Xrotation Yrotation
          JOINT rForeArm
          {
            OFFSET -28.1742 -1.7115 0.48768
            CHANNELS 3 Zrotation Xrotation Yrotation
            JOINT rHand
            {
              OFFSET -22.5879 0.773209 7.07136
              CHANNELS 3 Zrotation Xrotation Yrotation
              JOINT rThumb1
              {
                OFFSET -1.2192 -0.487915 3.41376
                CHANNELS 3 Zrotation Xrotation Yrotation
                JOINT rThumb2
                {
                  OFFSET -3.37035 -0.52449 3.41376
                  CHANNELS 3 Zrotation Xrotation Yrotation
                  End Site
                  {
                    OFFSET -1.78271 -1.18214 1.43049
                  }
                }
              }
              JOINT rIndex1
              {
                OFFSET -7.75947 0.938293 5.60832
                CHANNELS 3 Zrotation Xrotation Yrotation
                JOINT rIndex2
                {
                  OFFSET -2.54057 -0.884171 1.56538
                  CHANNELS 3 Zrotation Xrotation Yrotation
                  End Site
                  {
                    OFFSET -1.62519 -0.234802 1.16502
                  }
                }
              }
              JOINT rMid1
              {
                OFFSET -8.24714 1.18213 3.41376
                CHANNELS 3 Zrotation Xrotation Yrotation
                JOINT rMid2
                {
                  OFFSET -3.10165 -0.590103 1.0647
                  CHANNELS 3 Zrotation Xrotation Yrotation
                  End Site
                  {
                    OFFSET -2.48547 -0.328903 0.83742
                  }
                }
              }
              JOINT rRing1
              {
                OFFSET -8.82822 0.546677 1.51678
                CHANNELS 3 Zrotation Xrotation Yrotation
                JOINT rRing2
                {
                  OFFSET -2.60934 -0.819778 -0.0198488
                  CHANNELS 3 Zrotation Xrotation Yrotation
                  End Site
                  {
                    OFFSET -2.33842 -0.294052 0.168128
                  }
                }
              }
              JOINT rPinky1
              {
                OFFSET -8.27202 -0.0477905 -0.4584
                CHANNELS 3 Zrotation Xrotation Yrotation
                JOINT rPinky2
                {
                  OFFSET -1.82734 -0.647385 -0.700984
                  CHANNELS 3 Zrotation Xrotation Yrotation
                  End Site
                  {
                    OFFSET -1.69225 -0.51767 -0.607171
                  }
                }
              }
            }
          }
        }
      }
      JOINT lCollar
      {
        OFFSET 2.68224 19.2634 -4.8768
        CHANNELS 3 Zrotation Xrotation Yrotation
        JOINT lShldr
        {
          OFFSET 8.77824 -1.95073 1.46304
          CHANNELS 3 Zrotation Xrotation Yrotation
          JOINT lForeArm
          {
            OFFSET 28.1742 -1.7115 0.48768
            CHANNELS 3 Zrotation Xrotation Yrotation
            JOINT lHand
            {
              OFFSET 22.5879 0.773209 7.07136
              CHANNELS 3 Zrotation Xrotation Yrotation
              JOINT lThumb1
              {
                OFFSET 1.2192 -0.487915 3.41376
                CHANNELS 3 Zrotation Xrotation Yrotation
                JOINT lThumb2
                {
                  OFFSET 3.37035 -0.52449 3.41376
                  CHANNELS 3 Zrotation Xrotation Yrotation
                  End Site
                  {
                    OFFSET 1.78271 -1.18214 1.43049
                  }
                }
              }
              JOINT lIndex1
              {
                OFFSET 7.75947 0.938293 5.60832
                CHANNELS 3 Zrotation Xrotation Yrotation
                JOINT lIndex2
                {
                  OFFSET 2.54057 -0.884171 1.56538
                  CHANNELS 3 Zrotation Xrotation Yrotation
                  End Site
                  {
                    OFFSET 1.62519 -0.234802 1.16502
                  }
                }
              }
              JOINT lMid1
              {
                OFFSET 8.24714 1.18213 3.41376
                CHANNELS 3 Zrotation Xrotation Yrotation
                JOINT lMid2
                {
                  OFFSET 3.10165 -0.590103 1.0647
                  CHANNELS 3 Zrotation Xrotation Yrotation
                  End Site
                  {
                    OFFSET 2.48547 -0.328903 0.83742
                  }
                }
              }
              JOINT lRing1
              {
                OFFSET 8.82822 0.546677 1.51678
                CHANNELS 3 Zrotation Xrotation Yrotation
                JOINT lRing2
                {
                  OFFSET 2.60934 -0.819778 -0.0198488
                  CHANNELS 3 Zrotation Xrotation Yrotation
                  End Site
                  {
                    OFFSET 2.33842 -0.294052 0.168128
                  }
                }
              }
              JOINT lPinky1
              {
                OFFSET 8.27202 -0.0477905 -0.4584
                CHANNELS 3 Zrotation Xrotation Yrotation
                JOINT lPinky2
                {
                  OFFSET 1.82734 -0.647385 -0.700984
                  CHANNELS 3 Zrotation Xrotation Yrotation
                  End Site
                  {
                    OFFSET 1.69225 -0.51767 -0.607171
                  }
                }
              }
            }
          }
        }
      }
    }
  }
  JOINT rButtock
  {
    OFFSET -8.77824 4.35084 1.2192
    CHANNELS 3 Zrotation Xrotation Yrotation
    JOINT rThigh
    {
      OFFSET 0 -1.70687 -2.19456
      CHANNELS 3 Zrotation Xrotation Yrotation
      JOINT rShin
      {
        OFFSET 0 -36.8199 0.73152
        CHANNELS 3 Zrotation Xrotation Yrotation
        JOINT rFoot
        {
          OFFSET 0.73152 -45.1104 -5.12064
          CHANNELS 3 Zrotation Xrotation Yrotation
          End Site
          {
            OFFSET -1.1221 -3.69964 12.103
          }
        }
      }
    }
  }
  JOINT lButtock
  {
    OFFSET 8.77824 4.35084 1.2192
    CHANNELS 3 Zrotation Xrotation Yrotation
    JOINT lThigh
    {
      OFFSET 0 -1.70687 -2.19456
      CHANNELS 3 Zrotation Xrotation Yrotation
      JOINT lShin
      {
        OFFSET 0 -36.8199 0.73152
        CHANNELS 3 Zrotation Xrotation Yrotation
        JOINT lFoot
        {
          OFFSET -0.73152 -45.1104 -5.12064
          CHANNELS 3 Zrotation Xrotation Yrotation
          End Site
          {
            OFFSET 1.1221 -3.69964 12.103
          }
        }
      }
    }
  }
}
MOTION
Frames:	7
Frame Time:	0.00833333
19.9431 77.677 -66.7268 -9.3962 -11.013 40.6834 -1.8796 51.3895 -9.61039 -1.04825 -6.75607 -2.954 -6.2248 -6.7525 -2.33729 -0.413167 12.3866 -2.1959 -0.0 0.0 0.0 -0.0 0.0 0.0 -3.90875e-13 -4.22984e-13 -1.81699e-13 32.998 41.1232 18.0383 -21.4693 -52.1203 110.516 -0.0219788 4.22441 0.594794 -3.7582e-10 1.67748e-10 3.90653e-10 -6.48737e-10 2.94913e-10 6.74269e-10 -3.75816e-10 1.67742e-10 3.90652e-10 7.73091 5.47488 0.417314 -3.75821e-10 1.67743e-10 3.90654e-10 2.90554 0.965183 0.102902 -3.75815e-10 1.67745e-10 3.90659e-10 10.2786 0.731801 0.0259123 -3.75824e-10 1.67749e-10 3.90667e-10 2.22167 -0.733487 -0.20892 -3.91111e-13 -4.22995e-13 -1.81994e-13 40.2572 -0.607295 -42.9068 22.521 -51.1032 -107.673 44.3336 -79.8737 51.8976 -1.0155e-09 6.51586e-10 -1.83287e-09 -1.61331e-09 1.18958e-09 -3.18961e-09 -1.01551e-09 6.5159e-10 -1.83286e-09 -7.73091 5.47488 -0.417314 -1.01551e-09 6.51593e-10 -1.83287e-09 -2.90554 0.965183 -0.102902 -1.01551e-09 6.51589e-10 -1.83287e-09 -10.2786 0.731801 -0.0259123 -1.0155e-09 6.5159e-10 -1.83288e-09 -2.22167 -0.733487 0.20892 -2.03217e-16 0.0 -3.88251e-19 4.28197 -65.7243 -14.8344 -0.184767 34.0573 0.650424 1.9272 -7.99385 9.594 2.03217e-16 0.0 3.88251e-19 45.4909 -56.7325 25.7534 0.295369 37.7041 -0.705308 1.53268 -10.8252 6.01528
19.9264 77.6744 -66.6625 -9.3882 -11.0871 40.6199 -1.63017 51.3483 -9.75384 -1.02465 -6.79193 -2.95848 -6.2086 -6.80533 -2.27433 -0.599854 12.3997 -2.05927 -0.0 0.0 0.0 -0.0 0.0 0.0 -3.62245e-13 -4.22575e-13 -1.6197e-13 32.9987 41.1368 18.2031 -21.4203 -52.1648 110.644 -0.0236813 4.38806 0.617923 -2.15235e-10 3.10587e-10 3.33507e-10 -3.71196e-10 5.42443e-10 5.74739e-10 -2.15232e-10 3.10581e-10 3.33509e-10 7.73091 5.47488 0.417314 -2.15236e-10 3.10583e-10 3.33507e-10 2.90554 0.965183 0.102902 -2.1523e-10 3.10584e-10 3.3351e-10 10.2786 0.731801 0.0259123 -2.15243e-10 3.10588e-10 3.33518e-10 2.22167 -0.733487 -0.20892 -3.62424e-13 -4.22591e-13 -1.62243e-13 40.5921 -1.44945 -42.0498 22.7479 -50.8629 -107.033 49.3266 -80.4832 56.9648 -3.7469e-10 4.80811e-10 -1.66658e-09 -5.26958e-10 8.74541e-10 -2.86146e-09 -3.74698e-10 4.80815e-10 -1.66657e-09 -7.73091 5.47488 -0.417314 -3.74698e-10 4.8082e-10 -1.66659e-09 -2.90554 0.965183 -0.102902 -3.74701e-10 4.80815e-10 -1.66658e-09 -10.2786 0.731801 -0.0259123 -3.74687e-10 4.80814e-10 -1.66659e-09 -2.22167 -0.733487 0.20892 -2.03217e-16 0.0 -3.88251e-19 4.20321 -65.6901 -14.8213 -0.185897 34.1111 0.65129 1.9283 -7.99842 9.58893 2.03217e-16 0.0 3.88251e-19 45.3774 -56.6745 25.728 0.295336 37.7025 -0.704667 1.50853 -10.8641 5.92586
19.9281 77.6674 -66.6014 -9.3096 -11.1067 40.4995 -1.43583 51.2879 -9.84231 -0.989075 -6.82209 -2.95534 -6.16392 -6.85203 -2.21442 -0.796935 12.425 -1.9387 -0.0 0.0 0.0 -0.0 0.0 0.0 -3.08456e-13 -3.95175e-13 -1.49287e-13 32.9743 41.1721 18.3632 -21.3776 -52.2032 110.755 -0.0254126 4.54593 0.640246 -8.48795e-11 3.51784e-10 3.03069e-10 -1.454e-10 6.13316e-10 5.21816e-10 -8.48779e-11 3.51777e-10 3.03072e-10 7.73091 5.47488 0.417314 -8.48811e-11 3.51779e-10 3.03069e-10 2.90554 0.965183 0.102902 -8.4874e-11 3.5178e-10 3.0307e-10 10.2786 0.731801 0.0259123 -8.48902e-11 3.51785e-10 3.03078e-10 2.22167 -0.733487 -0.20892 -3.08592e-13 -3.95194e-13 -1.49536e-13 40.9786 -2.23086 -41.3284 22.9702 -50.6213 -106.395 54.9589 -81.0104 62.6712 3.96901e-11 3.29671e-10 -1.39817e-09 1.64329e-10 5.97505e-10 -2.37564e-09 3.96826e-11 3.29675e-10 -1.39816e-09 -7.73091 5.47488 -0.417314 3.96795e-11 3.29681e-10 -1.39818e-09 -2.90554 0.965183 -0.102902 3.96775e-11 3.29675e-10 -1.39817e-09 -10.2786 0.731801 -0.0259123 3.96917e-11 3.29673e-10 -1.39818e-09 -2.22167 -0.733487 0.20892 -2.03217e-16 0.0 -3.88251e-19 4.13182 -65.6671 -14.8067 -0.18705 34.1654 0.651945 1.93201 -8.01539 9.58626 2.03217e-16 0.0 3.88251e-19 45.2831 -56.6238 25.7275 0.29552 37.7148 -0.704592 1.4887 -10.8863 5.85299
19.9327 77.6655 -66.5893 -9.2682 -11.1526 40.493 -1.32708 51.2045 -9.85584 -0.937105 -6.84484 -2.94298 -6.07666 -6.88307 -2.15729 -1.01142 12.4615 -1.83924 -0.0 0.0 0.0 -0.0 0.0 0.0 -2.12691e-13 -3.22098e-13 -1.49483e-13 32.9234 41.2494 18.528 -21.3493 -52.2284 110.829 -0.0274408 4.72389 0.665423 2.7876e-11 2.10796e-10 3.28123e-10 5.08485e-11 3.67837e-10 5.65489e-10 2.78774e-11 2.1079e-10 3.28123e-10 7.73091 5.47488 0.417314 2.78759e-11 2.10792e-10 3.28124e-10 2.90554 0.965183 0.102902 2.78825e-11 2.10793e-10 3.28123e-10 10.2786 0.731801 0.0259123 2.78659e-11 2.10797e-10 3.28131e-10 2.22167 -0.733487 -0.20892 -2.12803e-13 -3.22114e-13 -1.49693e-13 41.4504 -2.92102 -40.7595 23.1832 -50.3831 -105.774 61.6171 -81.4627 69.4077 1.24736e-10 1.99428e-10 -9.48688e-10 2.78818e-10 3.61806e-10 -1.60505e-09 1.24729e-10 1.99433e-10 -9.48677e-10 -7.73091 5.47488 -0.417314 1.24726e-10 1.99437e-10 -9.48699e-10 -2.90554 0.965183 -0.102902 1.24724e-10 1.99432e-10 -9.48685e-10 -10.2786 0.731801 -0.0259123 1.24736e-10 1.99431e-10 -9.4869e-10 -2.22167 -0.733487 0.20892 -2.03217e-16 0.0 -3.88251e-19 4.06192 -65.6578 -14.8044 -0.188333 34.2247 0.652236 1.9424 -8.05612 9.5962 2.03217e-16 0.0 3.88251e-19 45.2154 -56.5794 25.7681 0.296129 37.7533 -0.705425 1.4736 -10.8824 5.79877
19.9314 77.6599 -66.5603 -9.2508 -11.241 40.4083 -1.27088 51.1087 -9.8258 -0.874613 -6.86172 -2.92556 -5.95719 -6.90255 -2.09934 -1.2431 12.5102 -1.7499 -0.0 0.0 0.0 -0.0 0.0 0.0 -8.93116e-14 -2.16671e-13 -1.51216e-13 32.8462 41.3496 18.7118 -21.333 -52.2428 110.871 -0.0296339 4.90938 0.691676 1.63404e-10 -3.13628e-11 3.83513e-10 2.8698e-10 -5.32753e-11 6.61934e-10 1.63405e-10 -3.13666e-11 3.83509e-10 7.73091 5.47488 0.417314 1.63406e-10 -3.13663e-11 3.83516e-10 2.90554 0.965183 0.102902 1.63411e-10 -3.13659e-11 3.83512e-10 10.2786 0.731801 0.0259123 1.63396e-10 -3.13631e-11 3.83521e-10 2.22167 -0.733487 -0.20892 -8.94079e-14 -2.16681e-13 -1.51375e-13 41.9699 -3.52529 -40.301 23.3941 -50.1386 -105.148 69.1846 -81.7963 77.0564 7.93129e-11 6.24764e-11 -3.71452e-10 1.60656e-10 1.15642e-10 -6.2681e-10 7.93066e-11 6.24806e-11 -3.71443e-10 -7.73091 5.47488 -0.417314 7.93072e-11 6.24826e-11 -3.71459e-10 -2.90554 0.965183 -0.102902 7.93048e-11 6.24795e-11 -3.71448e-10 -10.2786 0.731801 -0.0259123 7.93131e-11 6.24789e-11 -3.71453e-10 -2.22167 -0.733487 0.20892 -2.03217e-16 0.0 -3.88251e-19 3.99535 -65.6535 -14.8122 -0.189702 34.2881 0.652342 1.9574 -8.11198 9.61494 2.03217e-16 0.0 3.88251e-19 45.1702 -56.5359 25.8407 0.297086 37.8113 -0.706774 1.45869 -10.8609 5.74618
19.9395 77.6564 -66.5432 -9.2111 -11.3279 40.3792 -1.22255 51.0016 -9.77428 -0.807071 -6.87543 -2.90351 -5.8296 -6.92882 -2.04396 -1.47658 12.5727 -1.66748 -0.0 0.0 0.0 -0.0 0.0 0.0 3.46179e-14 -1.10945e-13 -1.49873e-13 32.7453 41.4409 18.8832 -21.3128 -52.2609 110.924 -0.0314197 5.05357 0.712098 2.63006e-10 -2.54235e-10 4.23344e-10 4.60978e-10 -4.41243e-10 7.31547e-10 2.63008e-10 -2.54237e-10 4.23334e-10 7.73091 5.47488 0.417314 2.63011e-10 -2.54238e-10 4.23349e-10 2.90554 0.965183 0.102902 2.63015e-10 -2.54238e-10 4.23342e-10 10.2786 0.731801 0.0259123 2.63001e-10 -2.54236e-10 4.23351e-10 2.22167 -0.733487 -0.20892 3.45343e-14 -1.10949e-13 -1.49988e-13 42.4617 -4.08239 -39.9364 23.6079 -49.8837 -104.502 76.6519 -81.9666 84.5992 -1.41943e-11 -6.33226e-11 1.95882e-10 -3.93637e-11 -1.09636e-10 3.30967e-10 -1.41998e-11 -6.33182e-11 1.95889e-10 -7.73091 5.47488 -0.417314 -1.41959e-11 -6.33189e-11 1.9588e-10 -2.90554 0.965183 -0.102902 -1.4199e-11 -6.33197e-11 1.95885e-10 -10.2786 0.731801 -0.0259123 -1.41944e-11 -6.33197e-11 1.9588e-10 -2.22167 -0.733487 0.20892 -2.03217e-16 0.0 -3.88251e-19 3.94395 -65.6549 -14.8006 -0.190942 34.3462 0.652475 1.96942 -8.16391 9.62238 2.03217e-16 0.0 3.88251e-19 45.1334 -56.4997 25.9157 0.297983 37.8663 -0.708165 1.44669 -10.8365 5.70331
19.9539 77.6539 -66.5359 -9.1595 -11.4291 40.3541 -1.13763 50.8841 -9.72322 -0.739951 -6.88867 -2.87728 -5.71788 -6.98021 -1.99449 -1.69642 12.6502 -1.58879 -0.0 0.0 0.0 -0.0 0.0 0.0 1.32032e-13 -3.69743e-14 -1.40839e-13 32.6238 41.4917 19.0102 -21.2726 -52.297 111.028 -0.0321036 5.10767 0.719763 2.67987e-10 -3.37361e-10 4.0172e-10 4.70827e-10 -5.87289e-10 6.94723e-10 2.67989e-10 -3.37363e-10 4.01707e-10 7.73091 5.47488 0.417314 2.67993e-10 -3.37366e-10 4.01726e-10 2.90554 0.965183 0.102902 2.67995e-10 -3.37364e-10 4.01717e-10 10.2786 0.731801 0.0259123 2.67983e-10 -3.37363e-10 4.01726e-10 2.22167 -0.733487 -0.20892 1.31962e-13 -3.69743e-14 -1.40938e-13 42.8523 -4.63309 -39.6507 23.8291 -49.6137 -103.821 82.831 -81.9992 90.8391 -7.34024e-11 -1.60106e-10 6.1566e-10 -1.70447e-10 -2.82681e-10 1.04016e-09 -7.34068e-11 -1.60101e-10 6.15666e-10 -7.73091 5.47488 -0.417314 -7.34009e-11 -1.60103e-10 6.1566e-10 -2.90554 0.965183 -0.102902 -7.34051e-11 -1.60103e-10 6.15662e-10 -10.2786 0.731801 -0.0259123 -7.34024e-11 -1.60102e-10 6.15657e-10 -2.22167 -0.733487 0.20892 -2.03217e-16 0.0 -3.88251e-19 3.91962 -65.6631 -14.7402 -0.191841 34.3896 0.652847 1.9708 -8.19286 9.59838 2.03217e-16 0.0 3.88251e-19 45.0907 -56.4769 25.9634 0.298409 37.8956 -0.709123 1.44027 -10.8242 5.67827
